<svg width="20" height="20" viewBox="0 0 20 20" fill="none" xmlns="http://www.w3.org/2000/svg">
<g id="cursor / pointer">
<mask id="mask0_63_6399" style="mask-type:luminance" maskUnits="userSpaceOnUse" x="0" y="0" width="20" height="20">
<rect id="Mask" width="20" height="20" fill="white"/>
</mask>
<g mask="url(#mask0_63_6399)">
<g id="Soft Shadow" filter="url(#filter0_d_63_6399)">
<path fill-rule="evenodd" clip-rule="evenodd" d="M5.33137 14.3798C5.04737 14.0208 4.70237 13.2868 4.08837 12.3958C3.74037 11.8918 2.87737 10.9428 2.62037 10.4608C2.39737 10.0348 2.42137 9.84383 2.47437 9.49083C2.56837 8.86283 3.21237 8.37383 3.89937 8.43983C4.41837 8.48883 4.85837 8.83183 5.25437 9.15583C5.49337 9.35083 5.78737 9.72983 5.96437 9.94383C6.12737 10.1398 6.16737 10.2208 6.34137 10.4528C6.57137 10.7598 6.64337 10.9118 6.55537 10.5738C6.48437 10.0778 6.36837 9.23083 6.20037 8.48183C6.07237 7.91383 6.04137 7.82483 5.91937 7.38883C5.79037 6.92483 5.72437 6.59983 5.60337 6.10783C5.51937 5.75983 5.36837 5.04883 5.32737 4.64883C5.27037 4.10183 5.24037 3.20983 5.59137 2.79983C5.86637 2.47883 6.49737 2.38183 6.88837 2.57983C7.40037 2.83883 7.69137 3.58283 7.82437 3.87983C8.06337 4.41383 8.21137 5.03083 8.34037 5.84083C8.50437 6.87183 8.80637 8.30283 8.81637 8.60383C8.84037 8.23483 8.74837 7.45783 8.81237 7.10383C8.87037 6.78283 9.14037 6.40983 9.47837 6.30883C9.76437 6.22383 10.0994 6.19283 10.3944 6.25383C10.7074 6.31783 11.0374 6.54183 11.1604 6.75283C11.5224 7.37683 11.5294 8.65183 11.5444 8.58383C11.6304 8.20783 11.6154 7.35483 11.8284 6.99983C11.9684 6.76583 12.3254 6.55483 12.5154 6.52083C12.8094 6.46883 13.1704 6.45283 13.4794 6.51283C13.7284 6.56183 14.0654 6.85783 14.1564 6.99983C14.3744 7.34383 14.4984 8.31683 14.5354 8.65783C14.5504 8.79883 14.6094 8.26583 14.8284 7.92183C15.2344 7.28283 16.6714 7.15883 16.7264 8.56083C16.7514 9.21483 16.7464 9.18483 16.7464 9.62483C16.7464 10.1418 16.7344 10.4528 16.7064 10.8268C16.6754 11.2268 16.5894 12.1308 16.4644 12.5688C16.3784 12.8698 16.0934 13.5468 15.8124 13.9528C15.8124 13.9528 14.7384 15.2028 14.6214 15.7658C14.5034 16.3278 14.5424 16.3318 14.5194 16.7308C14.4964 17.1288 14.6404 17.6528 14.6404 17.6528C14.6404 17.6528 13.8384 17.7568 13.4064 17.6878C13.0154 17.6248 12.5314 16.8468 12.4064 16.6088C12.2344 16.2808 11.8674 16.3438 11.7244 16.5858C11.4994 16.9688 11.0154 17.6558 10.6734 17.6988C10.0054 17.7828 8.61937 17.7298 7.53437 17.7188C7.53437 17.7188 7.71937 16.7078 7.30737 16.3608C7.00237 16.1018 6.47737 15.5768 6.16337 15.3008L5.33137 14.3798Z" fill="black" fill-opacity="0.01"/>
</g>
<g id="Hard Shadow" filter="url(#filter1_d_63_6399)">
<path fill-rule="evenodd" clip-rule="evenodd" d="M5.33137 14.3798C5.04737 14.0208 4.70237 13.2868 4.08837 12.3958C3.74037 11.8918 2.87737 10.9428 2.62037 10.4608C2.39737 10.0348 2.42137 9.84383 2.47437 9.49083C2.56837 8.86283 3.21237 8.37383 3.89937 8.43983C4.41837 8.48883 4.85837 8.83183 5.25437 9.15583C5.49337 9.35083 5.78737 9.72983 5.96437 9.94383C6.12737 10.1398 6.16737 10.2208 6.34137 10.4528C6.57137 10.7598 6.64337 10.9118 6.55537 10.5738C6.48437 10.0778 6.36837 9.23083 6.20037 8.48183C6.07237 7.91383 6.04137 7.82483 5.91937 7.38883C5.79037 6.92483 5.72437 6.59983 5.60337 6.10783C5.51937 5.75983 5.36837 5.04883 5.32737 4.64883C5.27037 4.10183 5.24037 3.20983 5.59137 2.79983C5.86637 2.47883 6.49737 2.38183 6.88837 2.57983C7.40037 2.83883 7.69137 3.58283 7.82437 3.87983C8.06337 4.41383 8.21137 5.03083 8.34037 5.84083C8.50437 6.87183 8.80637 8.30283 8.81637 8.60383C8.84037 8.23483 8.74837 7.45783 8.81237 7.10383C8.87037 6.78283 9.14037 6.40983 9.47837 6.30883C9.76437 6.22383 10.0994 6.19283 10.3944 6.25383C10.7074 6.31783 11.0374 6.54183 11.1604 6.75283C11.5224 7.37683 11.5294 8.65183 11.5444 8.58383C11.6304 8.20783 11.6154 7.35483 11.8284 6.99983C11.9684 6.76583 12.3254 6.55483 12.5154 6.52083C12.8094 6.46883 13.1704 6.45283 13.4794 6.51283C13.7284 6.56183 14.0654 6.85783 14.1564 6.99983C14.3744 7.34383 14.4984 8.31683 14.5354 8.65783C14.5504 8.79883 14.6094 8.26583 14.8284 7.92183C15.2344 7.28283 16.6714 7.15883 16.7264 8.56083C16.7514 9.21483 16.7464 9.18483 16.7464 9.62483C16.7464 10.1418 16.7344 10.4528 16.7064 10.8268C16.6754 11.2268 16.5894 12.1308 16.4644 12.5688C16.3784 12.8698 16.0934 13.5468 15.8124 13.9528C15.8124 13.9528 14.7384 15.2028 14.6214 15.7658C14.5034 16.3278 14.5424 16.3318 14.5194 16.7308C14.4964 17.1288 14.6404 17.6528 14.6404 17.6528C14.6404 17.6528 13.8384 17.7568 13.4064 17.6878C13.0154 17.6248 12.5314 16.8468 12.4064 16.6088C12.2344 16.2808 11.8674 16.3438 11.7244 16.5858C11.4994 16.9688 11.0154 17.6558 10.6734 17.6988C10.0054 17.7828 8.61937 17.7298 7.53437 17.7188C7.53437 17.7188 7.71937 16.7078 7.30737 16.3608C7.00237 16.1018 6.47737 15.5768 6.16337 15.3008L5.33137 14.3798Z" fill="black" fill-opacity="0.01"/>
</g>
<path id="Outline" fill-rule="evenodd" clip-rule="evenodd" d="M14.7239 7.47132C15.0441 7.18212 15.5211 7.03661 15.9661 7.10532C16.6232 7.20679 17.0691 7.73283 17.101 8.54648C17.1158 8.9347 17.1203 9.08693 17.1214 9.24051C17.1218 9.29672 17.1217 9.34221 17.1215 9.46246C17.1213 9.53589 17.1213 9.53589 17.1213 9.6248C17.1213 10.1317 17.1101 10.4549 17.0801 10.8558C17.0254 11.5624 16.9362 12.2814 16.8248 12.6718C16.7088 13.078 16.3929 13.7728 16.0967 14.1972C16.0614 14.2383 15.9979 14.314 15.9159 14.4153C15.7789 14.5843 15.642 14.7609 15.5148 14.9357C15.4477 15.0278 15.3851 15.1171 15.3278 15.2026C15.1355 15.4897 15.0134 15.7217 14.9883 15.8429C14.9296 16.1221 14.9115 16.2502 14.9062 16.3851C14.9048 16.4263 14.9048 16.4263 14.9038 16.4734C14.901 16.5999 14.8993 16.6547 14.8936 16.7524C14.8904 16.8085 14.8914 16.8734 14.8965 16.9451C14.9045 17.0582 14.9222 17.1823 14.9467 17.3093C14.9679 17.4189 14.9888 17.506 15.0019 17.5534L15.1161 17.9692L14.6885 18.0247C14.6273 18.0326 14.525 18.0442 14.3965 18.0556C14.2261 18.0709 14.0573 18.0814 13.8978 18.085C13.6838 18.09 13.4992 18.0824 13.3466 18.058C12.8662 17.9806 12.3905 17.3854 12.0741 16.783C11.6429 17.4647 11.1747 18.0137 10.72 18.0709C10.2947 18.1244 9.70211 18.1298 8.54182 18.1099C8.43467 18.108 8.43467 18.108 8.32787 18.1061C7.90102 18.0985 7.73975 18.0959 7.53045 18.0938L7.08524 18.0893L7.16538 17.6513C7.16911 17.6309 7.17562 17.5881 7.18237 17.5288C7.20188 17.3573 7.20748 17.1794 7.19139 17.0198C7.17182 16.8259 7.12244 16.6954 7.06452 16.6466C6.92564 16.5287 6.77376 16.3878 6.4673 16.0967C6.13905 15.7848 6.03528 15.6876 5.88499 15.5522L5.05299 14.6312C4.89362 14.431 4.10402 13.0796 3.77967 12.6089C3.65968 12.4351 3.6047 12.366 3.10005 11.7441C3.07491 11.7131 3.07491 11.7131 3.04975 11.6821C2.63863 11.1741 2.41828 10.879 2.28802 10.6347C2.05131 10.1825 2.02656 9.94699 2.10339 9.43529C2.22831 8.60073 3.05909 7.98236 3.9345 8.06646C4.46819 8.11685 4.85692 8.34619 5.49132 8.86525C5.57839 8.93629 5.67011 9.02536 5.76988 9.13306C5.82355 9.191 5.87911 9.25387 5.93819 9.3231C5.95295 9.34039 5.97331 9.36468 5.99668 9.39276C5.97776 9.28387 5.95781 9.17491 5.93443 9.05123C5.90185 8.87893 5.86856 8.71639 5.83443 8.56424C5.77207 8.28753 5.73216 8.12171 5.69133 7.96793C5.68412 7.9409 5.68412 7.9409 5.67685 7.91398C5.65497 7.83334 5.55228 7.46895 5.55796 7.48925C5.50381 7.29449 5.45846 7.11701 5.40673 6.90129C5.39514 6.85279 5.39514 6.85279 5.38364 6.80431C5.31678 6.51928 5.28033 6.36498 5.23872 6.1958C5.12106 5.70833 4.9913 5.04888 4.95427 4.68767C4.85733 3.75732 4.92151 3.0055 5.30647 2.55583C5.69411 2.10335 6.51192 1.96889 7.05753 2.24518C7.37171 2.40411 7.62211 2.68387 7.84062 3.05752C7.91151 3.17875 7.976 3.30479 8.04061 3.44404C8.07793 3.52446 8.18045 3.75769 8.16654 3.72661C8.40847 4.26716 8.56802 4.88662 8.7106 5.78189C8.73645 5.94438 8.76659 6.12239 8.80233 6.32462C8.96009 6.1496 9.15673 6.0135 9.37142 5.94934C9.73136 5.84237 10.1254 5.81528 10.4694 5.88641C10.8753 5.9694 11.3016 6.25061 11.4846 6.56463C11.5131 6.61377 11.5399 6.66583 11.5651 6.72072C11.7727 6.4459 12.1593 6.20354 12.4499 6.15154C12.8163 6.08675 13.2152 6.07952 13.5517 6.14486C13.8788 6.20924 14.3068 6.53972 14.473 6.79907C14.5739 6.95822 14.6561 7.19016 14.7239 7.47132Z" fill="black"/>
<path id="Fill" fill-rule="evenodd" clip-rule="evenodd" d="M5.33137 14.3798C5.04737 14.0208 4.70237 13.2868 4.08837 12.3958C3.74037 11.8918 2.87737 10.9428 2.62037 10.4608C2.39737 10.0348 2.42137 9.84383 2.47437 9.49083C2.56837 8.86283 3.21237 8.37383 3.89937 8.43983C4.41837 8.48883 4.85837 8.83183 5.25437 9.15583C5.49337 9.35083 5.78737 9.72983 5.96437 9.94383C6.12737 10.1398 6.16737 10.2208 6.34137 10.4528C6.57137 10.7598 6.64337 10.9118 6.55537 10.5738C6.48437 10.0778 6.36837 9.23083 6.20037 8.48183C6.07237 7.91383 6.04137 7.82483 5.91937 7.38883C5.79037 6.92483 5.72437 6.59983 5.60337 6.10783C5.51937 5.75983 5.36837 5.04883 5.32737 4.64883C5.27037 4.10183 5.24037 3.20983 5.59137 2.79983C5.86637 2.47883 6.49737 2.38183 6.88837 2.57983C7.40037 2.83883 7.69137 3.58283 7.82437 3.87983C8.06337 4.41383 8.21137 5.03083 8.34037 5.84083C8.50437 6.87183 8.80637 8.30283 8.81637 8.60383C8.82637 8.90483 8.74837 7.45783 8.81237 7.10383C8.87037 6.78283 9.14037 6.40983 9.47837 6.30883C9.76437 6.22383 10.0994 6.19283 10.3944 6.25383C10.7074 6.31783 11.0374 6.54183 11.1604 6.75283C11.5224 7.37683 11.5294 8.65183 11.5444 8.58383C11.6304 8.20783 11.6154 7.35483 11.8284 6.99983C11.9684 6.76583 12.3254 6.55483 12.5154 6.52083C12.8094 6.46883 13.1704 6.45283 13.4794 6.51283C13.7284 6.56183 14.0654 6.85783 14.1564 6.99983C14.3744 7.34383 14.4984 8.31683 14.5354 8.65783C14.5504 8.79883 14.6094 8.26583 14.8284 7.92183C15.2344 7.28283 16.6714 7.15883 16.7264 8.56083C16.7514 9.21483 16.7464 9.18483 16.7464 9.62483C16.7464 10.1418 16.7344 10.4528 16.7064 10.8268C16.6754 11.2268 16.5894 12.1308 16.4644 12.5688C16.3784 12.8698 16.0934 13.5468 15.8124 13.9528C15.8124 13.9528 14.7384 15.2028 14.6214 15.7658C14.5034 16.3278 14.5424 16.3318 14.5194 16.7308C14.4964 17.1288 14.6404 17.6528 14.6404 17.6528C14.6404 17.6528 13.8384 17.7568 13.4064 17.6878C13.0154 17.6248 12.5314 16.8468 12.4064 16.6088C12.2344 16.2808 11.8674 16.3438 11.7244 16.5858C11.4994 16.9688 11.0154 17.6558 10.6734 17.6988C10.0054 17.7828 8.61937 17.7298 7.53437 17.7188C7.53437 17.7188 7.71937 16.7078 7.30737 16.3608C7.00237 16.1018 6.47737 15.5768 6.16337 15.3008L5.33137 14.3798Z" fill="white" stroke="black" stroke-width="0.75"/>
<path id="Right Line" d="M13.5664 14.75V11.25" stroke="black" stroke-width="0.75" stroke-linecap="round"/>
<path id="Center Line" d="M11.5513 14.7461L11.5352 11.2461" stroke="black" stroke-width="0.75" stroke-linecap="round"/>
<path id="Left Line" d="M9.55469 14.7499L9.57614 11.25" stroke="black" stroke-width="0.75" stroke-linecap="round"/>
</g>
</g>
<defs>
<filter id="filter0_d_63_6399" x="0.938477" y="1.97729" width="17.3086" height="18.2681" filterUnits="userSpaceOnUse" color-interpolation-filters="sRGB">
<feFlood flood-opacity="0" result="BackgroundImageFix"/>
<feColorMatrix in="SourceAlpha" type="matrix" values="0 0 0 0 0 0 0 0 0 0 0 0 0 0 0 0 0 0 127 0" result="hardAlpha"/>
<feOffset dy="1"/>
<feGaussianBlur stdDeviation="0.75"/>
<feColorMatrix type="matrix" values="0 0 0 0 0 0 0 0 0 0 0 0 0 0 0 0 0 0 0.15 0"/>
<feBlend mode="normal" in2="BackgroundImageFix" result="effect1_dropShadow_63_6399"/>
<feBlend mode="normal" in="SourceGraphic" in2="effect1_dropShadow_63_6399" result="shape"/>
</filter>
<filter id="filter1_d_63_6399" x="1.43848" y="2.22729" width="16.3086" height="17.2681" filterUnits="userSpaceOnUse" color-interpolation-filters="sRGB">
<feFlood flood-opacity="0" result="BackgroundImageFix"/>
<feColorMatrix in="SourceAlpha" type="matrix" values="0 0 0 0 0 0 0 0 0 0 0 0 0 0 0 0 0 0 127 0" result="hardAlpha"/>
<feOffset dy="0.75"/>
<feGaussianBlur stdDeviation="0.5"/>
<feColorMatrix type="matrix" values="0 0 0 0 0 0 0 0 0 0 0 0 0 0 0 0 0 0 0.2 0"/>
<feBlend mode="normal" in2="BackgroundImageFix" result="effect1_dropShadow_63_6399"/>
<feBlend mode="normal" in="SourceGraphic" in2="effect1_dropShadow_63_6399" result="shape"/>
</filter>
</defs>
</svg>
